#!OML:ASF F:\VICON\USERDATA\INSTALL\rory3\rory3.ASF
:FULLY-SPECIFIED
:DEGREES
723
root -1.41695 28.9391 -5.33727 5.9002 4.39046 -355.892
lowerback 3.9527 0.496985 -3.29762
upperback 1.37775 0.551591 1.31942
thorax -0.843675 0.270982 3.18275
lowerneck -14.2955 1.41228 -9.49955
upperneck 41.8221 6.35774 -1.36979
head 17.7845 0.929323 2.25356
rclavicle -1.47101e-014 1.03368e-014
rhumerus -27.6137 -9.94357 -77.868
rradius 35.0207
rwrist 18.934
rhand -21.4381 2.44571
rfingers 7.12502
rthumb 4.9513 -27.4764
lclavicle -1.47101e-014 1.03368e-014
lhumerus -35.5143 18.7291 79.229
lradius 27.5248
lwrist -5.01428
lhand -14.2392 27.6758
lfingers 7.12502
lthumb 11.8985 57.3177
rfemur -19.7165 -9.45365 16.692
rtibia 56.7323
rfoot -16.319 -8.51461
rtoes -5.83392
lfemur -16.3145 6.05331 -28.972
ltibia 26.0852
lfoot -12.5257 -4.64744
ltoes -2.00366
724
root -1.39885 28.9373 -5.30249 5.81741 4.50638 -355.727
lowerback 4.07923 0.434854 -3.56176
upperback 1.38026 0.453962 1.27118
thorax -0.90533 0.223191 3.28603
lowerneck -14.3564 1.42977 -9.48251
upperneck 41.8575 6.35905 -1.29825
head 17.8153 0.938045 2.28584
rclavicle -1.07344e-014 -1.82882e-014
rhumerus -27.723 -10.4151 -77.8199
rradius 35.0917
rwrist 19.2264
rhand -21.7002 2.45287
rfingers 7.12502
rthumb 4.69827 -27.475
lclavicle -1.07344e-014 -1.82882e-014
lhumerus -35.4488 18.136 79.4377
lradius 27.81
lwrist -4.83433
lhand -14.1778 27.8844
lfingers 7.12502
lthumb 11.9576 57.5228
rfemur -20.7815 -9.61062 16.2993
rtibia 58.5603
rfoot -14.4583 -9.18833
rtoes -4.7776
lfemur -15.9955 6.28743 -29.2137
ltibia 25.8825
lfoot -12.6079 -4.93663
ltoes -3.15673
725
root -1.38643 28.9298 -5.27382 5.54976 4.85411 -355.567
lowerback 4.50847 0.302254 -3.89916
upperback 1.38496 0.248561 1.32251
thorax -1.12435 0.125039 3.53923
lowerneck -14.2586 1.49108 -9.56712
upperneck 41.8009 6.45204 -1.27871
head 17.7472 0.970884 2.32181
rclavicle -1.37161e-014 9.54166e-015
rhumerus -27.7591 -10.702 -77.6708
rradius 35.0711
rwrist 19.3245
rhand -21.5515 2.43302
rfingers 7.12502
rthumb 4.84181 -27.4917
lclavicle -1.37161e-014 9.54166e-015
lhumerus -35.4804 17.779 79.6498
lradius 28.0878
lwrist -4.93395
lhand -14.1162 27.7308
lfingers 7.12502
lthumb 12.0171 57.3658
rfemur -21.5681 -9.82565 15.9738
rtibia 60.2418
rfoot -13.0585 -9.64487
rtoes -3.18037
lfemur -15.4144 6.24571 -29.343
ltibia 25.6419
lfoot -12.6362 -5.23879
ltoes -3.38202
726
root -1.37515 28.9196 -5.2422 5.14879 5.49364 -355.497
lowerback 5.02105 0.124195 -4.06069
upperback 1.44881 -0.014617 1.34703
thorax -1.32077 -0.00295585 3.67173
lowerneck -14.1939 1.50087 -9.54555
upperneck 41.7852 6.46209 -1.30862
head 17.7233 0.976782 2.304
rclavicle -1.68967e-014 2.46493e-014
rhumerus -27.7686 -11.2393 -77.531
rradius 35.0347
rwrist 19.7027
rhand -21.1677 2.23036
rfingers 7.12502
rthumb 5.21241 -27.6855
lclavicle -1.68967e-014 2.46493e-014
lhumerus -35.3768 17.0755 79.903
lradius 28.3392
lwrist -4.8884
lhand -14.0558 27.7606
lfingers 7.12502
lthumb 12.0753 57.3922
rfemur -22.049 -10.2787 15.774
rtibia 61.745
rfoot -12.0285 -9.8151
rtoes -0.6291
lfemur -14.6317 5.93877 -29.3013
ltibia 25.423
lfoot -12.5852 -5.63545
ltoes -1.23147
727
root -1.35465 28.9194 -5.19292 4.98579 6.0207 -355.473
lowerback 5.05967 -0.0418344 -4.0573
upperback 1.51393 -0.23636 1.32857
thorax -1.25449 -0.116388 3.664
lowerneck -14.266 1.49558 -9.52768
upperneck 41.8184 6.45259 -1.28414
head 17.7606 0.975091 2.31314
rclavicle 1.15295e-014 1.11319e-014
rhumerus -27.803 -11.8448 -77.4547
rradius 35.0076
rwrist 20.1827
rhand -21.1206 2.11715
rfingers 7.12502
rthumb 5.25786 -27.7976
lclavicle 1.15295e-014 1.11319e-014
lhumerus -35.1778 16.2779 80.1533
lradius 28.5425
lwrist -4.75162
lhand -14.0094 28.0158
lfingers 7.12502
lthumb 12.12 57.6448
rfemur -22.6074 -10.7124 15.5751
rtibia 63.0101
rfoot -11.3472 -9.43421
rtoes 2.0986
lfemur -14.1712 5.74357 -29.3248
ltibia 25.2867
lfoot -12.5389 -6.07553
ltoes 0.522794
728
root -1.33438 28.9258 -5.14424 4.93591 6.42525 -355.463
lowerback 5.01592 -0.201447 -4.09344
upperback 1.50584 -0.448725 1.34461
thorax -1.21804 -0.223179 3.71328
lowerneck -14.2736 1.51106 -9.60213
upperneck 41.842 6.48501 -1.23749
head 17.7693 0.980873 2.35367
rclavicle -2.95195e-014 -1.43125e-014
rhumerus -27.9435 -12.0644 -77.416
rradius 34.9621
rwrist 20.0159
rhand -21.3982 2.49254
rfingers 7.12502
rthumb 4.98986 -27.4287
lclavicle -2.95195e-014 -1.43125e-014
lhumerus -35.0794 15.6857 80.2994
lradius 28.707
lwrist -4.77214
lhand -13.9107 27.8981
lfingers 7.12502
lthumb 12.2152 57.5214
rfemur -23.2796 -10.9695 15.4074
rtibia 64.0753
rfoot -11.3453 -8.73734
rtoes 3.09451
lfemur -14.0126 5.68646 -29.4033
ltibia 25.2323
lfoot -12.6467 -6.34715
ltoes -0.955935
729
root -1.32026 28.9287 -5.10487 4.80285 6.90018 -355.478
lowerback 5.17669 -0.374989 -4.19653
upperback 1.51659 -0.690089 1.41108
thorax -1.27156 -0.342655 3.85655
lowerneck -14.1956 1.52776 -9.66025
upperneck 41.7489 6.51442 -1.25505
head 17.6925 0.988504 2.35634
rclavicle -5.96354e-016 1.59028e-014
rhumerus -27.9905 -12.1982 -77.3484
rradius 34.893
rwrist 19.9671
rhand -21.4954 2.40394
rfingers 7.12502
rthumb 4.89605 -27.5195
lclavicle -5.96354e-016 1.59028e-014
lhumerus -34.9894 15.1996 80.4849
lradius 28.9778
lwrist -4.85675
lhand -13.7159 27.796
lfingers 7.12502
lthumb 12.4031 57.4081
rfemur -23.885 -11.1779 15.319
rtibia 64.9886
rfoot -11.798 -8.1411
rtoes 2.90653
lfemur -13.8494 5.5622 -29.4235
ltibia 25.2298
lfoot -12.7566 -6.36457
ltoes -3.46504
730
root -1.30844 28.9241 -5.06588 4.68771 7.42 -355.515
lowerback 5.30062 -0.565198 -4.31354
upperback 1.52123 -0.952517 1.51851
thorax -1.30619 -0.472998 4.05189
lowerneck -14.1344 1.52833 -9.73306
upperneck 41.7245 6.55855 -1.3292
head 17.6653 0.987071 2.34023
rclavicle 3.8763e-014 -7.95139e-015
rhumerus -28.0407 -12.3528 -77.2148
rradius 34.9332
rwrist 20.3465
rhand -21.2292 1.71421
rfingers 7.12502
rthumb 5.15303 -28.2031
lclavicle 3.8763e-014 -7.95139e-015
lhumerus -34.9966 14.7802 80.6862
lradius 29.3565
lwrist -4.97801
lhand -13.6178 27.8284
lfingers 7.12502
lthumb 12.4977 57.4347
rfemur -24.4741 -11.3676 15.2836
rtibia 65.7928
rfoot -12.2197 -7.53355
rtoes 2.58912
lfemur -13.651 5.3688 -29.3989
ltibia 25.3447
lfoot -12.9361 -6.36978
ltoes -4.86872
731
root -1.30244 28.9095 -5.03671 4.56175 7.77062 -355.533
lowerback 5.62 -0.659853 -4.50826
upperback 1.4212 -1.10216 1.6128
thorax -1.56656 -0.538667 4.27683
lowerneck -13.9905 1.50648 -9.84151
upperneck 41.83 6.52393 -1.26688
head 17.6845 0.961701 2.37969
rclavicle 1.76918e-014 -2.70347e-014
rhumerus -28.2905 -12.5755 -77.0093
rradius 34.9218
rwrist 20.6178
rhand -21.0596 1.62065
rfingers 7.12502
rthumb 5.31684 -28.2926
lclavicle 1.76918e-014 -2.70347e-014
lhumerus -35.0541 14.2152 80.8563
lradius 29.6058
lwrist -5.1271
lhand -13.6768 27.6501
lfingers 7.12502
lthumb 12.4407 57.2598
rfemur -25.1882 -11.2684 15.2857
rtibia 66.5412
rfoot -12.5153 -7.04819
rtoes 2.43986
lfemur -13.4364 5.04029 -29.3309
ltibia 25.5771
lfoot -13.1632 -6.29038
ltoes -4.67083
732
root -1.30035 28.8941 -5.01815 4.38525 8.02953 -355.706
lowerback 6.11138 -0.677038 -4.48283
upperback 1.34958 -1.14467 1.63479
thorax -1.91043 -0.549093 4.29951
lowerneck -13.9528 1.49941 -9.62359
upperneck 41.8044 6.49309 -1.40525
head 17.6771 0.966572 2.27178
rclavicle -6.75868e-015 7.15625e-015
rhumerus -28.5139 -12.9789 -76.9317
rradius 34.8823
rwrist 20.6816
rhand -21.297 2.20959
rfingers 7.12502
rthumb 5.08758 -27.7093
lclavicle -6.75868e-015 7.15625e-015
lhumerus -34.9392 13.5352 80.9192
lradius 29.7982
lwrist -5.09383
lhand -13.7972 27.5274
lfingers 7.12502
lthumb 12.3246 57.1441
rfemur -25.9457 -10.938 15.5134
rtibia 67.1518
rfoot -12.5918 -6.68779
rtoes 1.84637
lfemur -13.3037 4.70683 -29.0822
ltibia 25.8593
lfoot -13.3395 -6.18914
ltoes -4.42646
